<svg xmlns="http://www.w3.org/2000/svg" xmlns:xlink="http://www.w3.org/1999/xlink" width="400" height="300" xml:space="preserve"><linearGradient id="a" gradientUnits="userSpaceOnUse" x1="-102.121" y1="-471.71" x2="-102.121" y2="-365.878" gradientTransform="matrix(1.98 0 0 -1.98 402.04 -684.33)"><stop offset="0" style="stop-color:#2075bc"/><stop offset="1" style="stop-color:#29aae1"/></linearGradient><path fill="url(#a)" d="M259.074 40.269v-.371.371l-.368-.371v.371l-58.867 23.325-59.235-23.325v-.371l-.368.371v-.371.371L81 63.963v185.484l59.236-22.586 59.603 22.586 59.235-22.586 59.612 22.586V63.963z"/><linearGradient id="b" gradientUnits="userSpaceOnUse" x1="-147.09" y1="-471.71" x2="-147.09" y2="-365.878" gradientTransform="matrix(1.98 0 0 -1.98 402.04 -684.33)"><stop offset="0" style="stop-color:#0a6aa8"/><stop offset="1" style="stop-color:#1699c8"/></linearGradient><path fill="url(#b)" d="M81 63.963v185.484l59.604-22.586V39.898z"/><linearGradient id="c" gradientUnits="userSpaceOnUse" x1="-117.174" y1="-471.71" x2="-117.174" y2="-365.878" gradientTransform="matrix(1.98 0 0 -1.98 402.04 -684.33)"><stop offset="0" style="stop-color:#2075bc"/><stop offset="1" style="stop-color:#29aae1"/></linearGradient><path fill="url(#c)" d="M199.839 63.963v185.484l-59.603-22.586V39.898z"/><linearGradient id="d" gradientUnits="userSpaceOnUse" x1="-87.164" y1="-471.71" x2="-87.164" y2="-365.878" gradientTransform="matrix(1.98 0 0 -1.98 402.04 -684.33)"><stop offset="0" style="stop-color:#0a6aa8"/><stop offset="1" style="stop-color:#1699c8"/></linearGradient><path fill="url(#d)" d="M199.839 63.963v185.484l59.235-22.586V39.898z"/><linearGradient id="e" gradientUnits="userSpaceOnUse" x1="-57.245" y1="-471.71" x2="-57.245" y2="-365.878" gradientTransform="matrix(1.98 0 0 -1.98 402.04 -684.33)"><stop offset="0" style="stop-color:#2075bc"/><stop offset="1" style="stop-color:#29aae1"/></linearGradient><path fill="url(#e)" d="M318.686 63.963v185.484l-59.98-22.586V39.898z"/><defs><path id="f" d="M284.621 148.745c-2.22-6.294-1.482-17.03-2.589-18.511-7.035-9.626-32.214-11.107-43.689-23.696 1.852-6.292-2.22-11.106-6.291-15.178-6.298-4.443-14.809-2.592-21.476-.741-7.404-1.48-14.44-4.443-21.843-6.294-16.288-1.851-32.579 9.626-32.579 9.626-11.848 7.405-29.987 22.955-38.874 31.84 2.224.371 4.443-1.48 7.036-1.48l17.029-4.443c-7.032 5.924-21.841 15.92-26.284 24.064 5.181-1.851 16.288-7.775 21.841-8.515-4.812 4.073-14.809 12.217-18.139 17.399.369.372 0 .741 0 1.11 4.071-2.221 14.067-8.145 18.88-8.515-4.812 4.812-13.327 14.44-15.178 20.735 4.071-2.593 14.437-8.146 18.88-9.629-1.11 2.592-3.33 4.443-4.812 6.664-2.22 3.333-7.036 7.404-7.036 11.479 3.702-3.334 8.146-6.295 12.589-8.514-1.851 4.07-5.553 7.404-6.664 12.584 2.961-2.961 8.515-4.443 12.217-5.553l-.369.373c-.373.368-4.443 3.329-7.404 6.662 2.588 0 .737-.371 4.071.369h1.851c-.741.373-1.851 1.11-2.961 1.482-1.482.741-3.333 1.852-4.812 2.592 7.032 8.884 15.547 16.288 25.543 21.101 12.958 6.294 27.025 8.519 41.463 6.667 0-.741-.368-1.482-.736-2.592-.369-1.11-.746-1.852-.746-2.962 4.816-8.887 2.228-24.437 14.81-30.731 8.519-4.439 9.255-6.663 18.888-4.812 5.177 1.11 16.66 4.812 21.837 3.703 4.815-2.593 7.404-4.071 11.852-7.032 5.185 1.11 7.036.368 8.887-2.224-1.851 2.592 3.326-9.625 5.554-14.068l-.746-2.96z"/></defs><clipPath id="g"><use xlink:href="#f" overflow="visible"/></clipPath><path clip-path="url(#g)" fill="#FFF" d="M199.839 74.701c60.935 0 110.329 33.481 110.329 74.785 0 41.305-49.395 74.783-110.329 74.783-60.926 0-110.324-33.479-110.324-74.783s49.398-74.785 110.324-74.785z"/><defs><path id="h" d="M284.621 148.745c-2.22-6.294-1.482-17.03-2.589-18.511-7.035-9.626-32.214-11.107-43.689-23.696 1.852-6.292-2.22-11.106-6.291-15.178-6.298-4.443-14.809-2.592-21.476-.741-7.404-1.48-14.44-4.443-21.843-6.294-16.288-1.851-32.579 9.626-32.579 9.626-11.848 7.405-29.987 22.955-38.874 31.84 2.224.371 4.443-1.48 7.036-1.48l17.029-4.443c-7.032 5.924-21.841 15.92-26.284 24.064 5.181-1.851 16.288-7.775 21.841-8.515-4.812 4.073-14.809 12.217-18.139 17.399.369.372 0 .741 0 1.11 4.071-2.221 14.067-8.145 18.88-8.515-4.812 4.812-13.327 14.44-15.178 20.735 4.071-2.593 14.437-8.146 18.88-9.629-1.11 2.592-3.33 4.443-4.812 6.664-2.22 3.333-7.036 7.404-7.036 11.479 3.702-3.334 8.146-6.295 12.589-8.514-1.851 4.07-5.553 7.404-6.664 12.584 2.961-2.961 8.515-4.443 12.217-5.553l-.369.373c-.373.368-4.443 3.329-7.404 6.662 2.588 0 .737-.371 4.071.369h1.851c-.741.373-1.851 1.11-2.961 1.482-1.482.741-3.333 1.852-4.812 2.592 7.032 8.884 15.547 16.288 25.543 21.101 12.958 6.294 27.025 8.519 41.463 6.667 0-.741-.368-1.482-.736-2.592-.369-1.11-.746-1.852-.746-2.962 4.816-8.887 2.228-24.437 14.81-30.731 8.519-4.439 9.255-6.663 18.888-4.812 5.177 1.11 16.66 4.812 21.837 3.703 4.815-2.593 7.404-4.071 11.852-7.032 5.185 1.11 7.036.368 8.887-2.224-1.851 2.592 3.326-9.625 5.554-14.068l-.746-2.96z"/></defs><clipPath id="i"><use xlink:href="#h" overflow="visible"/></clipPath><path clip-path="url(#i)" fill="#F2F2F2" d="M82.482 67.296V255l58.864-23.326V43.601z"/><defs><path id="j" d="M284.621 148.745c-2.22-6.294-1.482-17.03-2.589-18.511-7.035-9.626-32.214-11.107-43.689-23.696 1.852-6.292-2.22-11.106-6.291-15.178-6.298-4.443-14.809-2.592-21.476-.741-7.404-1.48-14.44-4.443-21.843-6.294-16.288-1.851-32.579 9.626-32.579 9.626-11.848 7.405-29.987 22.955-38.874 31.84 2.224.371 4.443-1.48 7.036-1.48l17.029-4.443c-7.032 5.924-21.841 15.92-26.284 24.064 5.181-1.851 16.288-7.775 21.841-8.515-4.812 4.073-14.809 12.217-18.139 17.399.369.372 0 .741 0 1.11 4.071-2.221 14.067-8.145 18.88-8.515-4.812 4.812-13.327 14.44-15.178 20.735 4.071-2.593 14.437-8.146 18.88-9.629-1.11 2.592-3.33 4.443-4.812 6.664-2.22 3.333-7.036 7.404-7.036 11.479 3.702-3.334 8.146-6.295 12.589-8.514-1.851 4.07-5.553 7.404-6.664 12.584 2.961-2.961 8.515-4.443 12.217-5.553l-.369.373c-.373.368-4.443 3.329-7.404 6.662 2.588 0 .737-.371 4.071.369h1.851c-.741.373-1.851 1.11-2.961 1.482-1.482.741-3.333 1.852-4.812 2.592 7.032 8.884 15.547 16.288 25.543 21.101 12.958 6.294 27.025 8.519 41.463 6.667 0-.741-.368-1.482-.736-2.592-.369-1.11-.746-1.852-.746-2.962 4.816-8.887 2.228-24.437 14.81-30.731 8.519-4.439 9.255-6.663 18.888-4.812 5.177 1.11 16.66 4.812 21.837 3.703 4.815-2.593 7.404-4.071 11.852-7.032 5.185 1.11 7.036.368 8.887-2.224-1.851 2.592 3.326-9.625 5.554-14.068l-.746-2.96z"/></defs><clipPath id="k"><use xlink:href="#j" overflow="visible"/></clipPath><path clip-path="url(#k)" fill="#FFF" d="M200.214 67.296V255l-59.237-23.326V43.601z"/><defs><path id="l" d="M284.621 148.745c-2.22-6.294-1.482-17.03-2.589-18.511-7.035-9.626-32.214-11.107-43.689-23.696 1.852-6.292-2.22-11.106-6.291-15.178-6.298-4.443-14.809-2.592-21.476-.741-7.404-1.48-14.44-4.443-21.843-6.294-16.288-1.851-32.579 9.626-32.579 9.626-11.848 7.405-29.987 22.955-38.874 31.84 2.224.371 4.443-1.48 7.036-1.48l17.029-4.443c-7.032 5.924-21.841 15.92-26.284 24.064 5.181-1.851 16.288-7.775 21.841-8.515-4.812 4.073-14.809 12.217-18.139 17.399.369.372 0 .741 0 1.11 4.071-2.221 14.067-8.145 18.88-8.515-4.812 4.812-13.327 14.44-15.178 20.735 4.071-2.593 14.437-8.146 18.88-9.629-1.11 2.592-3.33 4.443-4.812 6.664-2.22 3.333-7.036 7.404-7.036 11.479 3.702-3.334 8.146-6.295 12.589-8.514-1.851 4.07-5.553 7.404-6.664 12.584 2.961-2.961 8.515-4.443 12.217-5.553l-.369.373c-.373.368-4.443 3.329-7.404 6.662 2.588 0 .737-.371 4.071.369h1.851c-.741.373-1.851 1.11-2.961 1.482-1.482.741-3.333 1.852-4.812 2.592 7.032 8.884 15.547 16.288 25.543 21.101 12.958 6.294 27.025 8.519 41.463 6.667 0-.741-.368-1.482-.736-2.592-.369-1.11-.746-1.852-.746-2.962 4.816-8.887 2.228-24.437 14.81-30.731 8.519-4.439 9.255-6.663 18.888-4.812 5.177 1.11 16.66 4.812 21.837 3.703 4.815-2.593 7.404-4.071 11.852-7.032 5.185 1.11 7.036.368 8.887-2.224-1.851 2.592 3.326-9.625 5.554-14.068l-.746-2.96z"/></defs><clipPath id="m"><use xlink:href="#l" overflow="visible"/></clipPath><path clip-path="url(#m)" fill="#F2F2F2" d="M200.214 67.296V255l58.492-23.326V43.601z"/><defs><path id="n" d="M284.621 148.745c-2.22-6.294-1.482-17.03-2.589-18.511-7.035-9.626-32.214-11.107-43.689-23.696 1.852-6.292-2.22-11.106-6.291-15.178-6.298-4.443-14.809-2.592-21.476-.741-7.404-1.48-14.44-4.443-21.843-6.294-16.288-1.851-32.579 9.626-32.579 9.626-11.848 7.405-29.987 22.955-38.874 31.84 2.224.371 4.443-1.48 7.036-1.48l17.029-4.443c-7.032 5.924-21.841 15.92-26.284 24.064 5.181-1.851 16.288-7.775 21.841-8.515-4.812 4.073-14.809 12.217-18.139 17.399.369.372 0 .741 0 1.11 4.071-2.221 14.067-8.145 18.88-8.515-4.812 4.812-13.327 14.44-15.178 20.735 4.071-2.593 14.437-8.146 18.88-9.629-1.11 2.592-3.33 4.443-4.812 6.664-2.22 3.333-7.036 7.404-7.036 11.479 3.702-3.334 8.146-6.295 12.589-8.514-1.851 4.07-5.553 7.404-6.664 12.584 2.961-2.961 8.515-4.443 12.217-5.553l-.369.373c-.373.368-4.443 3.329-7.404 6.662 2.588 0 .737-.371 4.071.369h1.851c-.741.373-1.851 1.11-2.961 1.482-1.482.741-3.333 1.852-4.812 2.592 7.032 8.884 15.547 16.288 25.543 21.101 12.958 6.294 27.025 8.519 41.463 6.667 0-.741-.368-1.482-.736-2.592-.369-1.11-.746-1.852-.746-2.962 4.816-8.887 2.228-24.437 14.81-30.731 8.519-4.439 9.255-6.663 18.888-4.812 5.177 1.11 16.66 4.812 21.837 3.703 4.815-2.593 7.404-4.071 11.852-7.032 5.185 1.11 7.036.368 8.887-2.224-1.851 2.592 3.326-9.625 5.554-14.068l-.746-2.96z"/></defs><clipPath id="o"><use xlink:href="#n" overflow="visible"/></clipPath><path clip-path="url(#o)" fill="#FFF" d="M317.941 67.296V255l-59.235-23.326V43.601z"/></svg>